<svg xmlns="http://www.w3.org/2000/svg" viewBox="0 0 64 64">
  <g stroke="#000" stroke-width="4" stroke-linecap="round" stroke-linejoin="round" fill="none">
    <path d="M10 28 L32 10 L54 28" />
    <path d="M16 24 V54 H48 V24" />
    <path d="M44 12 V6 H52 V18" />
    <path d="M32 36 C28 32 22 32 20 36 C18 40 20 44 24 46 L32 52 L40 46 C44 44 46 40 44 36 C42 32 36 32 32 36 Z" />
    <polyline points="22,42 27,42 29,38 32,46 35,42 42,42" />
    <path d="M41 30 V36" />
    <path d="M38 33 H44" />
    <circle cx="18" cy="44" r="6" fill="#000" stroke="none" />
    <circle cx="46" cy="44" r="6" fill="#000" stroke="none" />
  </g>
</svg>



