<svg xmlns="http://www.w3.org/2000/svg" width="64" height="64" viewBox="0 0 64 64" fill="none" role="img" aria-label="BestDOC CRM">
  <g stroke="#fff" stroke-width="4" stroke-linecap="round" stroke-linejoin="round">
    <!-- House outline + chimney -->
    <path d="M10 28 L32 10 L54 28" />
    <path d="M16 24 V54 H48 V24" />
    <path d="M44 12 V6 H52 V18" />

    <!-- Heart -->
    <path d="M32 36
             C28 32 22 32 20 36
             C18 40 20 44 24 46
             L32 52
             L40 46
             C44 44 46 40 44 36
             C42 32 36 32 32 36 Z" />

    <!-- Pulse line inside heart -->
    <polyline points="22,42 27,42 29,38 32,46 35,42 42,42" />

    <!-- Medical plus -->
    <path d="M41 30 V36" />
    <path d="M38 33 H44" />

    <!-- People (filled) -->
    <circle cx="18" cy="44" r="6" fill="#fff" stroke="none" />
    <circle cx="46" cy="44" r="6" fill="#fff" stroke="none" />

    <!-- Hands / support -->
    <path d="M4 54 C6 48 10 46 14 46" />
    <path d="M60 54 C58 48 54 46 50 46" />
    <path d="M14 46 C22 52 26 52 32 50 C38 52 42 52 50 46" />
  </g>
</svg>
